<svg width="526" height="684" viewBox="0 0 526 684" fill="none" xmlns="http://www.w3.org/2000/svg">
<g filter="url(#filter0_d_1_583)">
<mask id="mask0_1_583" style="mask-type:alpha" maskUnits="userSpaceOnUse" x="4" y="0" width="518" height="676">
<path d="M522 0H4V676H522V0Z" fill="#211F54"/>
</mask>
<g mask="url(#mask0_1_583)">
<path d="M71.4787 761.438C71.4787 761.438 48.3947 641.944 48.3332 617.375C48.2593 583.37 74.3335 569.832 74.3335 569.832L64.2065 541H119.886L111.088 569.636C111.088 569.636 140.436 585.164 136.338 620.433C128.684 686.366 116.502 761.389 116.502 761.389L71.4787 761.438Z" fill="#383669"/>
<path d="M213.857 67.874H-16.5117V481.056H213.857V67.874Z" fill="#504E83"/>
<path d="M202.267 79.8525H-7.31731V468.734H202.267V79.8525Z" fill="#383669"/>
<path d="M223.6 484.763L213.858 481.042V60.8701H223.6V484.763Z" fill="#36346B"/>
<path d="M44.0729 331.049L98.5795 280.541C105.471 274.145 114.493 267.249 123.358 270.392C127.634 271.956 130.845 275.552 135.027 277.288C143.375 280.76 152.93 275.724 159.351 269.376C165.773 263.027 170.848 255.052 178.632 250.439C186.417 245.826 198.508 246.405 202.361 254.583V309.563L123.17 343.371L44.0729 331.049Z" fill="#423F76"/>
<path d="M-7.31731 299.445C12.7468 291.298 32.7639 298.226 47.1111 314.41C50.134 317.819 52.8906 321.759 57.0413 323.636C62.6642 326.185 69.1643 324.277 75.2885 323.636C83.7157 322.806 92.2086 324.319 99.829 328.005C107.449 331.692 113.901 337.41 118.471 344.527L51.4967 377.365L-7.31731 376.943V299.445Z" fill="#8689AA"/>
<path d="M202.283 299.696C189.063 293.332 177.441 301.026 165.256 309.188C153.07 317.351 141.762 327.796 127.446 331.08C117.891 333.269 107.648 332.05 98.4225 335.334C79.6271 342.026 68.6631 365.873 48.787 367.014C37.964 367.64 28.253 361.088 18.589 356.162C8.92507 351.237 1.35994 346.577 -7.31731 353.16V468.734H202.283V299.696Z" fill="#6E7191"/>
<path d="M176.422 199.606C180.77 181.038 169.218 162.466 150.62 158.125C132.022 153.783 113.42 165.316 109.071 183.884C104.723 202.452 116.274 221.024 134.873 225.365C153.471 229.707 172.073 218.174 176.422 199.606Z" fill="#747799"/>
<path d="M206.825 191.722H-7.31731V195.866H206.825V191.722Z" fill="#504E83"/>
<path d="M206.825 284.323H-7.31731V288.467H206.825V284.323Z" fill="#504E83"/>
<path d="M206.825 376.943H-7.31731V381.087H206.825V376.943Z" fill="#6E7191"/>
<path d="M92.1882 193.786V479.759H102.776V193.786H92.1882Z" fill="#504E83"/>
<path d="M37.8388 79.8525H33.046V193.801H37.8388V79.8525Z" fill="#504E83"/>
<path d="M79.2202 79.8525H74.4274V193.801H79.2202V79.8525Z" fill="#504E83"/>
<path d="M120.585 79.8525H115.793V193.801H120.585V79.8525Z" fill="#504E83"/>
<path d="M161.966 79.8525H157.173V193.801H161.966V79.8525Z" fill="#504E83"/>
<path d="M223.6 56.6001H-26.2688V67.8745H223.6V56.6001Z" fill="#36346B"/>
<path d="M230.194 486.153H-33.1766V496.661H230.194V486.153Z" fill="#6E7191"/>
<path d="M213.858 481.039L230.194 486.152H-33.1766L-16.5271 481.039H213.858Z" fill="#504E83"/>
<path d="M150.176 289.992C141.922 291.305 138.225 301.454 138.946 309.789C139.666 318.123 143.096 326.255 142.172 334.574C141.013 345.129 133.025 354.042 132.086 364.628C130.989 377.138 139.823 388.162 142.47 400.406C143.754 406.364 143.566 412.65 145.79 418.326C147.678 423.162 151.187 427.194 155.721 429.734C160.254 432.273 165.53 433.163 170.647 432.251C175.765 431.339 180.407 428.683 183.78 424.734C187.154 420.786 189.05 415.791 189.145 410.602C189.333 401.016 183.413 391.993 184.133 382.455C184.666 375.387 188.832 368.694 187.923 361.673C186.874 353.307 179.105 347.38 176.364 339.405C173.623 331.431 176.27 322.658 175.315 314.276C173.623 299.249 165.275 288.772 150.176 289.992Z" fill="#05C168"/>
<path d="M107.964 362.659C106.554 376.591 112.663 392.964 119.883 404.989C127.151 417.08 138.084 426.548 151.099 432.025C152.556 432.635 154.373 433.151 155.61 432.166C156.046 431.686 156.372 431.117 156.567 430.499C156.762 429.881 156.82 429.228 156.738 428.585C156.835 413.81 152.136 399.401 143.343 387.516C134.55 375.631 122.138 366.91 107.964 362.659Z" fill="#05C168"/>
<g opacity="0.1">
<path opacity="0.1" d="M107.964 362.658C106.554 376.591 112.663 392.963 119.883 404.988C127.151 417.079 138.084 426.548 151.099 432.025C152.556 432.635 154.373 433.151 155.61 432.166C156.046 431.685 156.372 431.117 156.567 430.498C156.762 429.88 156.82 429.227 156.738 428.585C156.835 413.81 152.136 399.4 143.343 387.515C134.55 375.631 122.138 366.909 107.964 362.658Z" fill="black"/>
</g>
<path d="M168.704 461.141C168.536 460.899 168.399 460.636 168.297 460.359L167.31 458.076C166.464 456.09 165.211 453.229 163.629 449.726C155.327 431.402 145.132 413.992 133.212 397.779C130.941 394.652 129.062 392.181 127.73 390.477L126.164 388.491C125.98 388.267 125.818 388.026 125.678 387.771C125.678 387.771 125.913 387.959 126.289 388.397L127.856 390.289C129.265 391.931 131.207 394.37 133.557 397.451C145.79 413.519 156.054 430.99 164.131 449.491C165.697 453.041 166.84 455.934 167.592 457.967L168.454 460.312C168.565 460.579 168.649 460.857 168.704 461.141Z" fill="#EFF0F7"/>
<path d="M159.745 328.428C159.821 328.873 159.868 329.322 159.886 329.773C159.964 330.711 160.058 331.993 160.168 333.604C160.387 337.013 160.7 341.813 161.076 347.677C161.828 359.593 162.893 376.043 164.209 394.198C165.524 412.353 166.762 428.819 167.686 440.718C168.14 446.614 168.5 451.399 168.767 454.792C168.876 456.356 168.955 457.685 169.017 458.623C169.059 459.07 169.059 459.521 169.017 459.968C168.914 459.531 168.845 459.086 168.814 458.639C168.72 457.7 168.579 456.418 168.406 454.823C168.093 451.414 167.639 446.629 167.075 440.75C166.01 428.85 164.663 412.415 163.379 394.245C162.094 376.074 161.123 359.608 160.512 347.693C160.246 341.782 160.027 336.981 159.854 333.619C159.854 332.056 159.76 330.726 159.729 329.773C159.697 329.325 159.703 328.875 159.745 328.428Z" fill="#EFF0F7"/>
<path d="M147.238 447.6C147.055 444.166 149.79 441.281 153.229 441.281H175.814C179.128 441.281 181.814 443.968 181.814 447.281V466.879C181.814 471.317 180.048 475.573 176.905 478.71C173.762 481.848 169.5 483.611 165.055 483.611C160.764 483.609 156.637 481.966 153.523 479.02C150.409 476.074 148.544 472.048 148.311 467.771L147.238 447.6Z" fill="#312E72"/>
<path d="M181.97 453.48C181.97 453.48 181.532 453.23 180.686 452.948C179.496 452.593 178.235 452.544 177.021 452.808C175.207 453.254 173.439 453.872 171.743 454.653C170.676 455.087 169.561 455.392 168.422 455.56C167.188 455.707 165.938 455.643 164.726 455.372C162.467 454.786 160.245 454.071 158.069 453.23C156.321 452.616 154.469 452.351 152.618 452.448C151.383 452.513 150.185 452.896 149.141 453.558C148.405 454.059 148.092 454.45 148.029 454.403C148.232 453.966 148.545 453.589 148.938 453.308C149.992 452.502 151.25 452.004 152.571 451.869C154.506 451.686 156.458 451.905 158.304 452.511C160.371 453.136 162.533 454.074 164.882 454.575C166.012 454.827 167.176 454.896 168.328 454.778C169.399 454.615 170.449 454.337 171.461 453.949C173.207 453.178 175.036 452.606 176.911 452.245C178.219 452.02 179.563 452.161 180.796 452.651C181.673 453.042 182.002 453.449 181.97 453.48Z" fill="#DCDDEB"/>
<path d="M181.971 456.467C181.971 456.467 181.533 456.217 180.687 455.935C179.486 455.557 178.208 455.493 176.975 455.747C175.159 456.186 173.39 456.804 171.697 457.593C170.628 458.02 169.514 458.324 168.376 458.5C167.142 458.64 165.893 458.576 164.68 458.312C162.423 457.714 160.201 456.994 158.023 456.154C156.275 455.541 154.423 455.275 152.572 455.372C151.335 455.441 150.137 455.829 149.095 456.498C148.359 456.983 148.046 457.374 147.983 457.327C148.186 456.89 148.499 456.513 148.892 456.232C149.944 455.425 151.204 454.932 152.525 454.809C154.46 454.61 156.415 454.829 158.258 455.45C160.325 456.06 162.487 457.014 164.836 457.514C165.967 457.762 167.131 457.825 168.282 457.702C169.355 457.556 170.406 457.283 171.415 456.889C173.164 456.12 174.991 455.543 176.865 455.169C178.173 454.944 179.517 455.085 180.75 455.575C181.237 455.743 181.663 456.054 181.971 456.467Z" fill="#DCDDEB"/>
<path d="M153.136 458.171C153.136 458.28 152.87 458.421 152.776 458.827C152.682 459.234 152.854 459.719 153.434 459.625C154.013 459.531 154.045 459.031 153.81 458.655C153.575 458.28 153.262 458.264 153.246 458.155C153.23 458.046 153.685 457.811 154.233 458.264C154.388 458.405 154.507 458.58 154.581 458.776C154.654 458.972 154.68 459.183 154.656 459.39C154.608 459.659 154.476 459.905 154.279 460.093C154.082 460.281 153.83 460.402 153.559 460.438C153.289 460.488 153.011 460.451 152.763 460.333C152.516 460.215 152.312 460.022 152.181 459.781C152.093 459.59 152.054 459.38 152.067 459.169C152.081 458.959 152.147 458.756 152.259 458.577C152.635 457.983 153.168 458.061 153.136 458.171Z" fill="#DCDDEB"/>
<path d="M165.775 451.524C165.665 451.524 165.932 450.993 166.637 451.102C166.849 451.147 167.042 451.257 167.188 451.417C167.334 451.577 167.426 451.778 167.451 451.994C167.484 452.26 167.426 452.53 167.286 452.759C167.146 452.988 166.932 453.163 166.68 453.256C166.427 453.348 166.151 453.353 165.896 453.268C165.64 453.184 165.421 453.016 165.274 452.791C165.159 452.614 165.098 452.408 165.098 452.197C165.098 451.986 165.159 451.78 165.274 451.603C165.65 451.024 166.135 451.102 166.135 451.212C166.135 451.321 165.885 451.478 165.791 451.837C165.77 451.925 165.771 452.016 165.793 452.103C165.814 452.19 165.857 452.27 165.916 452.338C165.983 452.409 166.067 452.461 166.161 452.488C166.255 452.516 166.354 452.518 166.449 452.494C166.535 452.458 166.61 452.397 166.662 452.319C166.715 452.241 166.744 452.15 166.746 452.056C166.752 451.973 166.732 451.89 166.691 451.817C166.649 451.745 166.586 451.687 166.511 451.65C166.135 451.478 165.853 451.603 165.775 451.524Z" fill="#DCDDEB"/>
<path d="M178.007 457.968C178.007 457.874 178.477 457.671 179.025 458.187C179.188 458.346 179.303 458.548 179.355 458.769C179.408 458.991 179.397 459.222 179.323 459.438C179.247 459.724 179.076 459.975 178.837 460.151C178.598 460.326 178.306 460.415 178.01 460.402C177.714 460.389 177.431 460.276 177.208 460.081C176.986 459.885 176.837 459.62 176.786 459.328C176.735 459.099 176.758 458.859 176.851 458.644C176.943 458.428 177.101 458.246 177.302 458.124C177.976 457.733 178.43 458.124 178.336 458.202C178.242 458.281 177.945 458.202 177.647 458.578C177.574 458.65 177.524 458.741 177.501 458.841C177.479 458.941 177.486 459.045 177.522 459.141C177.561 459.252 177.63 459.35 177.721 459.424C177.812 459.499 177.922 459.547 178.039 459.563C178.162 459.559 178.282 459.52 178.385 459.451C178.487 459.382 178.568 459.285 178.618 459.172C178.668 459.075 178.693 458.968 178.693 458.859C178.693 458.75 178.668 458.643 178.618 458.546C178.352 458.171 177.992 458.093 178.007 457.968Z" fill="#DCDDEB"/>
<path d="M392.192 154.563L358.927 154.87L359.234 188.081L392.5 187.774L392.192 154.563Z" fill="#4E4B88"/>
<path d="M392.132 163.025C386.682 163.535 381.207 163.738 375.734 163.634C370.261 163.833 364.781 163.735 359.318 163.338C364.769 162.839 370.243 162.635 375.717 162.73C381.19 162.531 386.67 162.629 392.132 163.025Z" fill="#7976AB"/>
<path d="M382.042 173.326C381.886 172.853 381.758 172.371 381.659 171.882C381.263 170.607 380.462 169.496 379.376 168.716C378.585 168.16 377.669 167.806 376.709 167.684C375.749 167.563 374.774 167.678 373.869 168.02C372.756 168.434 371.798 169.183 371.128 170.163C370.458 171.143 370.108 172.306 370.127 173.492C370.147 174.678 370.533 175.83 371.235 176.788C371.936 177.746 372.917 178.463 374.044 178.841C374.955 179.165 375.931 179.262 376.888 179.122C377.845 178.983 378.753 178.612 379.533 178.041C380.606 177.245 381.389 176.121 381.763 174.84C381.855 174.347 381.971 173.859 382.112 173.378C382.24 173.887 382.24 174.419 382.112 174.927C381.847 176.356 381.074 177.641 379.934 178.546C379.084 179.231 378.073 179.689 376.997 179.878C375.921 180.067 374.815 179.979 373.782 179.624C372.501 179.184 371.387 178.358 370.596 177.26C369.804 176.163 369.373 174.847 369.361 173.494C369.35 172.141 369.759 170.818 370.532 169.706C371.305 168.595 372.404 167.751 373.678 167.289C374.705 166.92 375.809 166.815 376.887 166.986C377.966 167.156 378.984 167.596 379.847 168.263C380.998 169.154 381.795 170.424 382.095 171.847C382.201 172.337 382.183 172.845 382.042 173.326Z" fill="#7976AB"/>
<path d="M521.122 187.87H312.163V198.518H521.122V187.87Z" fill="#36346B"/>
<path d="M485.851 195.981H479.943V230.933H485.851V195.981Z" fill="#36346B"/>
<path d="M354.055 195.455H347.973V231.468H354.055V195.455Z" fill="#36346B"/>
<path d="M410.134 16.6943C413.684 16.9765 417.141 17.971 420.297 19.6181C423.453 21.2653 426.243 23.5313 428.501 26.2805C432.985 31.822 436.139 38.315 437.72 45.2616C441.205 58.5535 438.853 74.1767 434.949 87.3295C420.607 82.1101 411.877 66.6957 407.938 58.6231C401.717 45.8531 398.232 18.9908 410.134 16.6943Z" fill="#05C168"/>
<path d="M455.493 103.58C453.371 100.219 452.173 96.3587 452.02 92.3882C451.867 88.4178 452.765 84.4771 454.622 80.963C456.55 77.488 459.152 74.4308 462.276 71.9696C465.399 69.5084 468.982 67.6923 472.815 66.6272C476.301 65.5833 480.413 65.1658 483.445 67.2187C484.802 68.2763 485.854 69.6739 486.493 71.2691C487.133 72.8644 487.338 74.6003 487.087 76.3004C486.513 79.6944 485.059 82.8792 482.87 85.5386C475.795 94.9161 467.187 102.71 455.493 103.58Z" fill="#05C168"/>
<path d="M440.265 117.654C435.794 110.548 429.689 104.611 422.458 100.335C415.226 96.0594 407.076 93.569 398.686 93.071C394.416 92.8622 389.328 93.68 387.516 97.5249C385.703 101.37 388.335 105.841 391.28 108.92C397.574 115.223 405.597 119.523 414.337 121.278C423.076 123.034 432.141 122.166 440.387 118.785" fill="#05C168"/>
<path d="M455.615 149.163C455.331 148.244 455.133 147.3 455.023 146.345C454.709 144.605 454.291 141.891 453.838 138.603C452.521 130.041 452.328 121.344 453.263 112.732C454.293 104.07 457.626 95.84 462.917 88.8972C464.537 86.8232 466.403 84.9536 468.476 83.3299C469.19 82.7384 469.835 82.373 470.218 82.0947C470.42 81.9364 470.643 81.8075 470.881 81.7119C468.129 83.9536 465.633 86.4917 463.44 89.28C458.399 96.2368 455.22 104.363 454.204 112.889C453.306 121.42 453.417 130.028 454.535 138.533C454.901 141.7 455.197 144.309 455.423 146.293C455.556 147.244 455.62 148.203 455.615 149.163Z" fill="#DCDDEB"/>
<path d="M414.593 36.9116C414.809 37.2611 414.995 37.6277 415.151 38.0077L416.597 41.2263C417.835 44.0099 419.595 48.081 421.703 53.1264C425.938 63.1997 431.601 77.205 437.509 92.8108C443.416 108.417 448.453 122.665 451.955 133.035C453.698 138.254 455.092 142.412 456.016 145.335C456.434 146.727 456.782 147.84 457.061 148.693C457.203 149.075 457.302 149.472 457.358 149.876C457.155 149.519 456.997 149.14 456.887 148.745C456.573 147.91 456.173 146.814 455.685 145.439L451.345 133.261C447.703 122.961 442.632 108.747 436.672 93.1588C430.713 77.5703 425.189 63.5825 421.111 53.3874L416.266 41.4003C415.743 40.0432 415.308 38.9472 414.977 38.1121C414.804 37.7278 414.675 37.325 414.593 36.9116Z" fill="#DCDDEB"/>
<path d="M405.41 104.032C406.331 104.016 407.251 104.074 408.163 104.206C409.236 104.27 410.302 104.415 411.352 104.641C412.767 104.877 414.168 105.185 415.552 105.563L417.957 106.224C418.793 106.468 419.699 106.816 420.518 107.129C422.394 107.802 424.232 108.574 426.025 109.443C430.108 111.487 433.968 113.947 437.544 116.785C441.118 119.717 444.366 123.024 447.233 126.649C448.453 128.223 449.587 129.86 450.631 131.555C451.119 132.356 451.624 133.104 452.025 133.869L453.175 136.079C453.822 137.353 454.404 138.66 454.918 139.993C455.347 140.976 455.708 141.988 455.998 143.02C456.309 143.888 456.554 144.778 456.73 145.682C456.521 145.682 455.51 141.942 452.583 136.375L451.398 134.217C450.997 133.469 450.474 132.738 449.986 131.955C449.028 130.372 447.791 128.824 446.501 127.154C440.877 120.085 433.776 114.326 425.694 110.278C423.812 109.408 422.052 108.538 420.292 107.912C419.438 107.599 418.549 107.233 417.8 106.972L415.43 106.259C409.4 104.502 405.41 104.293 405.41 104.032Z" fill="#DCDDEB"/>
<path d="M428.326 136.322H479.96V166.49C479.96 169.298 479.406 172.078 478.33 174.673C477.254 177.267 475.676 179.624 473.688 181.609C471.699 183.595 469.338 185.17 466.739 186.244C464.141 187.319 461.356 187.872 458.543 187.872H449.743C444.063 187.872 438.616 185.619 434.599 181.609C430.583 177.6 428.326 172.161 428.326 166.49V136.322Z" fill="#615F91"/>
<path d="M510.278 256.117C509.787 256.691 509.091 257.049 508.339 257.117C507.587 257.184 506.838 256.955 506.253 256.478L418.805 184.02L422.469 179.641L509.87 252.117C510.451 252.596 510.819 253.285 510.896 254.034C510.972 254.782 510.75 255.531 510.278 256.117Z" fill="#7876B4"/>
<path d="M445.78 202.62C445.78 202.62 440.449 216.162 434.988 215.602C429.527 215.042 428.043 206.321 428.043 206.321C428.043 206.321 423.545 214.075 418.897 210.334C414.248 206.593 415.477 197.373 415.477 197.373C415.477 197.373 407.806 202.16 405.151 198.039C401.51 192.362 412.483 182.749 412.483 182.749C412.483 182.749 420.415 161.522 426.308 162.043C431.165 162.458 430.099 170.511 430.099 170.511C430.099 170.511 434.068 164.909 438.882 164.828C443.696 164.747 441.871 176.67 441.871 176.67C441.871 176.67 450.371 171.404 453.307 175.961C456.243 180.517 447.662 187.573 447.662 187.573C447.662 187.573 458.987 184.81 457.869 191.29C456.751 197.769 445.78 202.62 445.78 202.62Z" fill="#4B3CFB"/>
<path d="M416.851 147.09C412.263 143.281 406.086 148.278 406.086 148.278C406.086 148.278 407.431 142.43 404.497 140.898C398.526 137.743 391.848 151.116 391.848 151.116C391.848 151.116 373.447 158.344 373.25 164.275C373.053 170.206 380.913 169.527 380.913 169.527C379.896 170.51 379.13 171.723 378.68 173.063C378.231 174.403 378.11 175.831 378.329 177.227C379.131 181.946 390.566 177.939 390.566 177.939C390.566 177.939 386.958 187.254 391.967 189.303C395.542 190.768 399.281 186.273 401.149 183.55C399.787 186.085 398.186 190.482 401.666 193.175C403.349 194.501 405.947 192.463 408.523 189.429C408.765 190.157 409.211 190.799 409.808 191.281C410.406 191.762 411.129 192.062 411.892 192.145C415.969 192.747 418.839 185.579 418.687 180.953C422.906 180.003 427.005 178.304 425.938 175.24C425.51 174.18 424.846 173.233 423.995 172.469C423.144 171.706 422.129 171.148 421.028 170.837C423.688 166.657 426.436 161.426 425.585 158.495C424.059 153.187 417.115 158.9 417.115 158.9C417.115 158.9 421.439 150.898 416.851 147.09Z" fill="white"/>
<path d="M379.076 124.854C379.076 124.854 379.185 117.287 374.105 115.114C369.025 112.94 363.963 124.891 363.963 124.891C363.963 124.891 351.932 122.318 348.828 128.115C345.723 133.913 353.246 139.864 353.246 139.864C353.246 139.864 347.192 142.65 348.586 147.901C349.98 153.151 359.697 150.748 359.697 150.748C359.697 150.748 354.219 161.563 358.791 162.976C363.363 164.388 369.16 158.929 369.16 158.929C369.16 158.929 366.164 167.938 372.061 168.523C374.67 168.785 377.53 165.334 379.929 161.409C380.52 162.407 381.448 163.161 382.547 163.536C383.645 163.91 384.842 163.881 385.921 163.453C392.566 160.861 388.854 153.868 388.854 153.868C388.854 153.868 403.053 151.515 402.329 146.437C402.036 144.281 399.617 143.639 396.939 143.589C399.9 141.114 401.945 138.398 400.72 135.986C398.177 130.652 388.772 134.647 388.772 134.647C388.772 134.647 393.592 129.289 390.422 124.278C387.252 119.268 379.076 124.854 379.076 124.854Z" fill="#4B3CFB"/>
<path d="M506.189 248.822C506.189 248.822 508.544 248.347 509.496 249.321C511.566 251.458 508.14 254.332 508.14 254.332C504.793 257.558 501.274 260.603 497.601 263.453C497.601 263.453 441.24 334.519 430.344 339.269C421.684 343.188 369.701 342.428 349.455 341.977L330.732 403.732L346.148 462.969L242.849 464.322L267.068 404.634L263.119 390.81L254.03 372.142C231.881 421.522 216.536 498.834 211.207 525.175L211.588 527.55C211.736 531.602 212.294 535.628 213.253 539.568C213.717 541.545 214.522 543.425 215.632 545.126C216.877 547.31 218.423 549.309 220.224 551.064C220.602 551.351 220.886 551.744 221.038 552.193C221.191 552.642 221.206 553.126 221.08 553.583C220.955 554.041 220.695 554.45 220.335 554.759C219.974 555.068 219.53 555.262 219.058 555.316C216.964 555.221 211.873 551.373 208.519 544.746C205.164 538.12 202.666 549.568 201.667 553.701C200.668 557.834 197.028 570.541 195.505 571.253C193.269 572.275 191.746 570.161 192.841 565.98C193.935 561.8 196.243 549.283 194.078 548.855C191.913 548.428 187.155 569.638 187.155 569.638C187.155 569.638 186.869 574.317 184.3 573.937C179.637 573.225 186.322 551.064 187.012 548.974C187.44 547.501 185.085 547.003 184.633 548.57C184.181 550.138 180.398 569.804 175.64 569.139C172 568.617 180.969 550.874 179.494 546.361C178.019 541.849 174.07 560.517 170.596 559.876C169.311 559.639 168.384 559.282 172.214 548.879C175.515 541.031 179.231 533.364 183.348 525.911C188.796 469.382 219.677 368.745 233.309 326.229C235.353 319.862 239.111 314.178 244.17 309.796C249.23 305.415 255.398 302.506 262 301.385C276.582 298.971 291.328 297.677 306.109 297.513C311.961 297.442 313.008 296.611 318.884 296.349C323.533 296.31 328.178 296.627 332.778 297.299C346.315 298.725 413.786 305.684 417.14 302.501C420.899 298.962 472.811 249.249 472.811 249.249H473.001C474.35 245.76 475.424 242.17 476.213 238.514C476.644 236.548 476.733 234.523 476.474 232.528C476.268 230.023 475.708 227.56 474.809 225.213C473.786 223.146 475.784 220.914 477.664 221.864C479.543 222.814 482.541 228.419 482.779 235.853C483.017 243.288 492.747 230.628 492.747 230.628C494.981 229.464 499.08 229.355 497.601 238.229C499.132 238.184 500.655 238.459 502.073 239.036C502.299 239.143 502.487 239.316 502.61 239.533C502.734 239.75 502.787 239.999 502.763 240.247C502.625 241.368 502.625 242.5 502.763 243.62C502.763 243.62 505.761 243.359 506.189 244.689C506.425 246.057 506.425 247.454 506.189 248.822Z" fill="#FFBE9D"/>
<path d="M238.304 420.216C241.302 410.003 256.695 359.507 256.695 359.507C256.695 359.507 264.26 400.669 262.262 405.633C260.423 409.882 258.252 413.98 255.767 417.889C238.304 444.419 240.588 457.697 240.588 457.697L346.1 454.49C346.338 439.764 337.607 405.514 335.799 400.051C333.991 394.588 340.01 376.703 340.01 376.703C340.01 376.703 351.905 364.613 351.477 358.39C351.251 352.8 350.559 347.239 349.407 341.764L413.642 344.139L411.62 300.673L319.36 291.458C316.148 300.507 287.099 296.065 287.099 296.065C255.743 297.11 253.792 302.858 240.755 312.977C227.717 323.095 206.139 409.932 206.139 409.932L238.304 420.216Z" fill="#0075FF"/>
<path d="M300.684 409.932C298.856 410.258 296.993 410.354 295.141 410.217C291.691 410.217 286.957 409.979 281.747 409.457C276.536 408.934 271.826 408.198 268.471 407.533C266.622 407.295 264.808 406.832 263.071 406.155C264.931 406.156 266.787 406.331 268.614 406.678C271.992 407.105 276.679 407.699 281.866 408.222C287.052 408.744 291.762 409.1 295.165 409.338C297.019 409.361 298.867 409.56 300.684 409.932Z" fill="white"/>
<path d="M307.916 400.977C306.087 401.871 304.153 402.533 302.159 402.948C292.667 405.438 282.874 406.597 273.062 406.392C271.032 406.458 269.002 406.266 267.02 405.822C269.023 405.569 271.043 405.466 273.062 405.513C276.798 405.394 281.936 405.133 287.599 404.468C293.261 403.803 298.304 402.853 301.873 402.093C303.855 401.564 305.876 401.191 307.916 400.977Z" fill="white"/>
<path d="M343.413 361.024C343.365 362.835 343.117 364.635 342.675 366.392C342.057 369.693 341.105 374.206 339.892 379.147C338.679 384.087 337.513 388.647 336.466 391.735C336.045 393.503 335.422 395.216 334.61 396.842C334.743 395.036 335.078 393.252 335.61 391.521C336.514 387.816 337.537 383.541 338.679 378.862C339.821 374.182 340.915 369.907 341.819 366.202C342.141 364.418 342.676 362.68 343.413 361.024Z" fill="white"/>
<path d="M239.423 414.158C233.919 413.309 228.488 412.047 223.174 410.381C217.745 409.114 212.417 407.446 207.234 405.393C212.736 406.255 218.166 407.518 223.483 409.17C228.914 410.433 234.242 412.1 239.423 414.158Z" fill="white"/>
<path d="M350.55 341.241C349.652 341.395 348.735 341.395 347.838 341.241C345.353 340.987 342.913 340.404 340.581 339.507C336.69 338.047 333.147 335.79 330.18 332.882C327.214 329.974 324.89 326.478 323.357 322.62C321.663 318.375 320.939 313.807 321.24 309.247C321.346 305.487 322.472 301.826 324.499 298.654C325.924 296.518 328.054 294.946 330.518 294.212C331.176 294.031 331.857 293.943 332.54 293.951C333.016 293.951 333.254 293.951 333.254 293.951C333.254 293.951 332.255 293.951 330.661 294.593C328.4 295.426 326.483 296.989 325.213 299.034C321.977 304.117 321.073 313.404 324.523 322.073C326.128 326.161 328.642 329.832 331.874 332.809C334.522 335.246 337.573 337.206 340.891 338.605C344.004 339.833 347.243 340.717 350.55 341.241Z" fill="white"/>
<path d="M406.007 343.284C405.412 336.001 405.221 328.69 405.436 321.385C405.25 314.087 405.472 306.783 406.102 299.51C406.698 306.785 406.888 314.088 406.673 321.385C406.873 328.692 406.651 336.004 406.007 343.284Z" fill="white"/>
<path d="M318.741 294.118C319.002 288.822 319.55 282.836 319.55 282.836C319.55 282.836 332.682 281.387 333.467 267.849C334.252 254.31 333.467 223.076 333.467 223.076L309.676 210.916L283.269 231.651L287.337 299.344L311.556 300.888C313.407 300.939 315.203 300.255 316.55 298.986C317.897 297.717 318.685 295.966 318.741 294.118Z" fill="#FFBE9D"/>
<path d="M321.097 257.136C321.097 257.136 321.097 257.398 320.883 257.706C320.706 257.93 320.477 258.108 320.216 258.224C319.955 258.34 319.669 258.39 319.384 258.371C317.862 258.371 316.387 256.614 315.863 254.571C315.615 253.581 315.615 252.545 315.863 251.555C315.912 251.123 316.068 250.709 316.318 250.353C316.567 249.996 316.901 249.707 317.291 249.512C317.611 249.38 317.97 249.38 318.29 249.512C318.527 249.63 318.719 249.821 318.837 250.058C319.004 250.462 318.837 250.723 318.837 250.7C318.837 250.676 318.837 250.462 318.599 250.225C318.475 250.054 318.292 249.936 318.086 249.892C317.879 249.849 317.664 249.882 317.481 249.987C317.189 250.163 316.947 250.41 316.776 250.705C316.606 251 316.513 251.333 316.506 251.673C316.305 252.557 316.305 253.474 316.506 254.357C316.981 256.21 318.266 257.706 319.408 257.849C319.632 257.879 319.859 257.863 320.076 257.802C320.293 257.741 320.495 257.635 320.669 257.493C320.955 257.303 321.05 257.113 321.097 257.136Z" fill="#EB996E"/>
<path d="M341.628 215.759C339.796 209.536 333.158 206.449 327.115 204.739C317.908 202.126 307.964 200.986 298.971 204.287C289.978 207.589 279.177 213.384 279.177 223.289C273.872 222.861 270.826 227.493 268.733 233.241C267.394 236.743 266.592 240.426 266.354 244.167C265.688 257.135 262.048 275.044 253.626 284.545C248.868 289.842 242.277 293.499 239.565 300.102C237.186 305.827 238.423 312.62 236.211 318.415C234.236 323.522 229.882 327.156 226.695 331.597C223.447 336.636 221.535 342.416 221.14 348.395C220.745 354.374 221.878 360.355 224.434 365.776C227.009 371.058 230.634 375.762 235.088 379.6C239.542 383.439 244.732 386.332 250.343 388.103C261.455 391.478 273.306 391.594 284.482 388.435C292.87 386.433 300.695 382.56 307.369 377.106C314.198 371.538 318.888 363.785 320.644 355.159C322.333 345.468 319.621 335.611 317.599 325.968C311.271 295.494 313.079 293.903 321.073 265.615C321.263 265.116 321.358 264.593 321.501 264.095C321.644 263.596 321.715 263.358 321.81 262.978C322.037 261.86 322.157 260.723 322.167 259.582C320.999 260.015 319.732 260.107 318.514 259.846C317.296 259.585 316.178 258.983 315.291 258.109C314.403 257.178 313.783 256.024 313.498 254.769C313.213 253.515 313.274 252.206 313.674 250.983C314.235 249.646 315.071 248.441 316.129 247.447C317.186 246.453 318.441 245.691 319.812 245.212C322.452 244.119 325.284 243.549 327.877 242.338C333.372 239.725 337.179 234.31 339.772 228.633C341.904 224.699 342.562 220.134 341.628 215.759Z" fill="#6E7191"/>
<path d="M240.589 457.695L346.101 454.489L392.017 633.435L383.572 838.699H327.782L334.61 637.806L293.809 513.227L300.09 846.656L243.706 847.487L237.782 534.081C237.52 525.364 234.665 505.721 235.736 497.076L240.589 457.695Z" fill="#6E7191"/>
<path d="M307.845 515.768C306.118 515.876 304.384 515.773 302.682 515.459C299.494 515.079 295.141 514.414 290.359 513.464C285.577 512.514 281.294 511.421 278.202 510.543C276.548 510.18 274.949 509.605 273.443 508.832C273.443 508.476 281.199 510.329 290.715 512.253C300.232 514.177 307.892 515.412 307.845 515.768Z" fill="#A0A3BD"/>
<path d="M292.31 837.133C291.977 837.133 290.502 764.287 289.003 674.433C287.505 584.58 286.624 511.686 286.934 511.686C287.243 511.686 288.766 584.509 290.241 674.41C291.716 764.31 292.667 837.133 292.31 837.133Z" fill="#A0A3BD"/>
<path d="M375.507 827.441C375.481 827.117 375.481 826.792 375.507 826.468V823.617C375.507 821.052 375.697 817.371 375.84 812.691C376.173 803.191 376.649 789.391 377.244 772.48C378.528 738.467 380.336 691.581 382.311 639.825C382.311 639.327 382.311 638.852 382.311 638.424V638.59C369.821 588.711 358.52 543.44 350.312 510.687L340.796 471.947C339.702 467.411 338.869 463.872 338.274 461.402C337.989 460.238 337.798 459.335 337.632 458.646C337.539 458.337 337.483 458.018 337.465 457.696C337.589 457.996 337.685 458.306 337.751 458.623C337.941 459.288 338.179 460.19 338.512 461.33C339.155 463.706 340.082 467.316 341.272 471.829C343.651 480.997 347.005 494.203 351.193 510.473C359.472 543.203 370.891 588.355 383.548 638.305V638.472C383.548 638.899 383.548 639.398 383.548 639.873C381.431 691.628 379.504 738.491 378.1 772.503C377.363 789.438 376.744 803.143 376.316 812.691C376.078 817.442 375.887 821.052 375.769 823.617C375.769 824.829 375.626 825.779 375.602 826.468C375.606 826.795 375.574 827.121 375.507 827.441Z" fill="#A0A3BD"/>
<path d="M357.306 634.245C353.299 635.56 349.171 636.475 344.982 636.976C339.843 637.855 338.317 637.821 336.342 637.916V637.441C336.985 637.631 337.318 637.75 337.318 637.845C337.318 637.94 336.913 637.845 336.247 637.845H334.82L336.247 637.417C338.103 636.871 339.629 636.62 344.768 635.693C348.89 634.801 353.089 634.316 357.306 634.245Z" fill="#A0A3BD"/>
<path d="M356.331 641.061C352.62 641.23 348.902 641.064 345.221 640.562C341.505 640.486 338.263 640.038 334.618 639.308C342.053 638.703 349.078 639.322 356.331 641.061Z" fill="#A0A3BD"/>
<path opacity="0.2" d="M240.136 461.472C241.386 463.074 242.96 464.395 244.755 465.348C246.551 466.302 248.528 466.867 250.557 467.006C254.806 467.509 259.104 467.429 263.332 466.768C290.573 463.752 319.431 460.973 346.1 454.489C311.58 456.413 275.109 455.771 240.588 457.695L240.231 460.64" fill="#A0A3BD"/>
<g opacity="0.2">
<path opacity="0.2" d="M275.704 510.046L295.164 585.434L293.808 513.229L275.704 510.046Z" fill="black"/>
</g>
<path d="M478.005 107.079C484.201 109.434 481.732 116.89 481.732 116.89C481.732 116.89 486.779 115.321 489.185 118.9C491.591 122.479 483.147 123.719 484.468 124.975C485.789 126.231 491.434 128.994 487.393 132.165C483.351 135.336 477.958 130.454 477.958 130.454C477.958 130.454 476.763 133.389 472.109 134.08C467.454 134.771 469.341 127 469.341 127C469.341 127 466.338 131.034 464.263 124.692C463.934 123.93 463.784 123.102 463.824 122.272C463.863 121.443 464.092 120.634 464.492 119.906C464.893 119.178 465.454 118.55 466.133 118.071C466.813 117.592 467.593 117.274 468.414 117.142C468.414 117.142 465.505 111.584 468.005 110.203C470.505 108.821 475.175 113.343 475.175 113.343C475.175 113.343 474.908 105.902 478.005 107.079Z" fill="#407BFF"/>
<path d="M478.005 107.079C484.201 109.434 481.732 116.89 481.732 116.89C481.732 116.89 486.779 115.321 489.185 118.9C491.591 122.479 483.147 123.719 484.468 124.975C485.789 126.231 491.434 128.994 487.393 132.165C483.351 135.336 477.958 130.454 477.958 130.454C477.958 130.454 476.763 133.389 472.109 134.08C467.454 134.771 469.341 127 469.341 127C469.341 127 466.338 131.034 464.263 124.692C463.934 123.93 463.784 123.102 463.824 122.272C463.863 121.443 464.092 120.634 464.492 119.906C464.893 119.178 465.454 118.55 466.133 118.071C466.813 117.592 467.593 117.274 468.414 117.142C468.414 117.142 465.505 111.584 468.005 110.203C470.505 108.821 475.175 113.343 475.175 113.343C475.175 113.343 474.908 105.902 478.005 107.079Z" fill="#ACAAD1"/>
<path d="M521.027 138.867C522.19 141.693 518.92 143.231 518.92 143.231C518.92 143.231 521.043 144.408 520.602 146.371C520.162 148.333 517.064 145.884 517.08 146.732C517.096 147.579 517.945 150.358 515.602 149.997C513.259 149.636 513.165 146.308 513.165 146.308C512.627 146.439 512.066 146.434 511.53 146.295C510.995 146.155 510.503 145.884 510.099 145.507C508.385 144.173 511.592 142.368 511.592 142.368C511.592 142.368 509.297 142.65 510.759 139.934C510.912 139.583 511.143 139.272 511.434 139.023C511.725 138.774 512.07 138.594 512.441 138.497C512.812 138.4 513.2 138.389 513.576 138.464C513.952 138.539 514.306 138.698 514.611 138.93C514.611 138.93 515.555 136.183 516.813 136.591C518.071 136.999 518.024 139.997 518.024 139.997C518.024 139.997 520.429 137.454 521.027 138.867Z" fill="#407BFF"/>
<path d="M521.027 138.867C522.19 141.693 518.92 143.231 518.92 143.231C518.92 143.231 521.043 144.408 520.602 146.371C520.162 148.333 517.064 145.884 517.08 146.732C517.096 147.579 517.945 150.358 515.602 149.997C513.259 149.636 513.165 146.308 513.165 146.308C512.627 146.439 512.066 146.434 511.53 146.295C510.995 146.155 510.503 145.884 510.099 145.507C508.385 144.173 511.592 142.368 511.592 142.368C511.592 142.368 509.297 142.65 510.759 139.934C510.912 139.583 511.143 139.272 511.434 139.023C511.725 138.774 512.07 138.594 512.441 138.497C512.812 138.4 513.2 138.389 513.576 138.464C513.952 138.539 514.306 138.698 514.611 138.93C514.611 138.93 515.555 136.183 516.813 136.591C518.071 136.999 518.024 139.997 518.024 139.997C518.024 139.997 520.429 137.454 521.027 138.867Z" fill="#ACAAD1"/>
<path d="M487.031 165.632C483.76 168.631 480.034 164.91 480.034 164.91C480.034 164.91 479.468 168.411 476.59 168.772C473.713 169.133 475.505 163.701 474.342 164.157C473.178 164.612 469.829 167.108 469.153 163.733C468.477 160.358 473.005 158.599 473.005 158.599C472.547 157.936 472.268 157.165 472.194 156.363C472.119 155.56 472.253 154.752 472.581 154.016C473.556 151.033 477.675 154.487 477.675 154.487C477.675 154.487 476.103 151.488 480.584 152.147C481.134 152.186 481.668 152.347 482.147 152.619C482.626 152.891 483.037 153.267 483.351 153.719C483.665 154.171 483.873 154.688 483.96 155.231C484.048 155.774 484.011 156.33 483.855 156.857C483.855 156.857 488.069 156.857 488.147 158.694C488.226 160.53 484.075 162.022 484.075 162.022C484.075 162.022 488.666 164.141 487.031 165.632Z" fill="#407BFF"/>
<path d="M487.031 165.632C483.76 168.631 480.034 164.91 480.034 164.91C480.034 164.91 479.468 168.411 476.59 168.772C473.713 169.133 475.505 163.701 474.342 164.157C473.178 164.612 469.829 167.108 469.153 163.733C468.477 160.358 473.005 158.599 473.005 158.599C472.547 157.936 472.268 157.165 472.194 156.363C472.119 155.56 472.253 154.752 472.581 154.016C473.556 151.033 477.675 154.487 477.675 154.487C477.675 154.487 476.103 151.488 480.584 152.147C481.134 152.186 481.668 152.347 482.147 152.619C482.626 152.891 483.037 153.267 483.351 153.719C483.665 154.171 483.873 154.688 483.96 155.231C484.048 155.774 484.011 156.33 483.855 156.857C483.855 156.857 488.069 156.857 488.147 158.694C488.226 160.53 484.075 162.022 484.075 162.022C484.075 162.022 488.666 164.141 487.031 165.632Z" fill="#ACAAD1"/>
<path d="M333.5 258.119C328.3 259.719 321.333 253.452 318.5 250.119V269.119C318.5 273.619 322.1 282.019 324.5 281.619C327.5 281.119 336 273.619 333.5 258.119Z" fill="white"/>
<path d="M320 253.619C319.167 252.119 315.5 246.519 313.5 250.119C311 254.619 315 260.119 318.5 260.119" stroke="white" stroke-width="2"/>
</g>
</g>
<defs>
<filter id="filter0_d_1_583" x="0" y="0" width="526" height="684" filterUnits="userSpaceOnUse" color-interpolation-filters="sRGB">
<feFlood flood-opacity="0" result="BackgroundImageFix"/>
<feColorMatrix in="SourceAlpha" type="matrix" values="0 0 0 0 0 0 0 0 0 0 0 0 0 0 0 0 0 0 127 0" result="hardAlpha"/>
<feOffset dy="4"/>
<feGaussianBlur stdDeviation="2"/>
<feComposite in2="hardAlpha" operator="out"/>
<feColorMatrix type="matrix" values="0 0 0 0 0 0 0 0 0 0 0 0 0 0 0 0 0 0 0.25 0"/>
<feBlend mode="normal" in2="BackgroundImageFix" result="effect1_dropShadow_1_583"/>
<feBlend mode="normal" in="SourceGraphic" in2="effect1_dropShadow_1_583" result="shape"/>
</filter>
</defs>
</svg>
